solid OpenSCAD_Model
  facet normal -1 0 0
    outer loop
      vertex 0 0 0
      vertex 0 30 28.5
      vertex 0 30 0
    endloop
  endfacet
  facet normal -1 -0 0
    outer loop
      vertex 0 30 28.5
      vertex 0 0 0
      vertex 0 0 28.5
    endloop
  endfacet
  facet normal -0 0 1
    outer loop
      vertex 0 30 28.5
      vertex 18.24 0 28.5
      vertex 18.24 30 28.5
    endloop
  endfacet
  facet normal 0 0 1
    outer loop
      vertex 18.24 0 28.5
      vertex 0 30 28.5
      vertex 0 0 28.5
    endloop
  endfacet
  facet normal 1 -0 0
    outer loop
      vertex 18.24 0 28.5
      vertex 18.24 30 0
      vertex 18.24 30 28.5
    endloop
  endfacet
  facet normal 1 0 0
    outer loop
      vertex 18.24 30 0
      vertex 18.24 0 28.5
      vertex 18.24 0 0
    endloop
  endfacet
  facet normal 0 0 -1
    outer loop
      vertex 0 0 0
      vertex 18.24 30 0
      vertex 18.24 0 0
    endloop
  endfacet
  facet normal -0 0 -1
    outer loop
      vertex 18.24 30 0
      vertex 0 0 0
      vertex 0 30 0
    endloop
  endfacet
  facet normal 0 -1 0
    outer loop
      vertex 0 0 28.5
      vertex 2.5 0 26
      vertex 18.24 0 28.5
    endloop
  endfacet
  facet normal 0 -1 0
    outer loop
      vertex 0 0 28.5
      vertex 2.5 0 2.5
      vertex 2.5 0 26
    endloop
  endfacet
  facet normal 0 -1 -0
    outer loop
      vertex 2.5 0 2.5
      vertex 0 0 0
      vertex 15.74 0 2.5
    endloop
  endfacet
  facet normal 0 -1 0
    outer loop
      vertex 0 0 0
      vertex 2.5 0 2.5
      vertex 0 0 28.5
    endloop
  endfacet
  facet normal 0 -1 0
    outer loop
      vertex 15.74 0 26
      vertex 18.24 0 28.5
      vertex 2.5 0 26
    endloop
  endfacet
  facet normal 0 -1 0
    outer loop
      vertex 15.74 0 2.5
      vertex 18.24 0 28.5
      vertex 15.74 0 26
    endloop
  endfacet
  facet normal 0 -1 0
    outer loop
      vertex 15.74 0 2.5
      vertex 18.24 0 0
      vertex 18.24 0 28.5
    endloop
  endfacet
  facet normal 0 -1 0
    outer loop
      vertex 18.24 0 0
      vertex 15.74 0 2.5
      vertex 0 0 0
    endloop
  endfacet
  facet normal 0 1 -0
    outer loop
      vertex 18.24 30 0
      vertex 0 30 28.5
      vertex 18.24 30 28.5
    endloop
  endfacet
  facet normal 0 1 0
    outer loop
      vertex 0 30 28.5
      vertex 18.24 30 0
      vertex 0 30 0
    endloop
  endfacet
  facet normal 1 -0 0
    outer loop
      vertex 2.5 0 26
      vertex 2.5 25 2.5
      vertex 2.5 25 26
    endloop
  endfacet
  facet normal 1 0 0
    outer loop
      vertex 2.5 25 2.5
      vertex 2.5 0 26
      vertex 2.5 0 2.5
    endloop
  endfacet
  facet normal 0 0 -1
    outer loop
      vertex 2.5 0 26
      vertex 15.74 25 26
      vertex 15.74 0 26
    endloop
  endfacet
  facet normal -0 0 -1
    outer loop
      vertex 15.74 25 26
      vertex 2.5 0 26
      vertex 2.5 25 26
    endloop
  endfacet
  facet normal -1 0 0
    outer loop
      vertex 15.74 0 2.5
      vertex 15.74 25 26
      vertex 15.74 25 2.5
    endloop
  endfacet
  facet normal -1 -0 0
    outer loop
      vertex 15.74 25 26
      vertex 15.74 0 2.5
      vertex 15.74 0 26
    endloop
  endfacet
  facet normal 0 -1 0
    outer loop
      vertex 2.5 25 2.5
      vertex 15.74 25 26
      vertex 2.5 25 26
    endloop
  endfacet
  facet normal 0 -1 -0
    outer loop
      vertex 15.74 25 26
      vertex 2.5 25 2.5
      vertex 15.74 25 2.5
    endloop
  endfacet
  facet normal -0 0 1
    outer loop
      vertex 2.5 25 2.5
      vertex 15.74 0 2.5
      vertex 15.74 25 2.5
    endloop
  endfacet
  facet normal 0 0 1
    outer loop
      vertex 15.74 0 2.5
      vertex 2.5 25 2.5
      vertex 2.5 0 2.5
    endloop
  endfacet
endsolid OpenSCAD_Model
