solid OpenSCAD_Model
  facet normal -1 0 0
    outer loop
      vertex 0 0 25
      vertex 0 20 80
      vertex 0 20 25
    endloop
  endfacet
  facet normal -1 -0 0
    outer loop
      vertex 0 20 80
      vertex 0 0 25
      vertex 0 0 80
    endloop
  endfacet
  facet normal 1 0 0
    outer loop
      vertex 50 20 80
      vertex 50 10 30
      vertex 50 20 30
    endloop
  endfacet
  facet normal 1 -0 0
    outer loop
      vertex 50 0 80
      vertex 50 10 30
      vertex 50 20 80
    endloop
  endfacet
  facet normal 1 0 0
    outer loop
      vertex 50 0 20
      vertex 50 10 30
      vertex 50 0 80
    endloop
  endfacet
  facet normal 1 0 0
    outer loop
      vertex 50 10 30
      vertex 50 0 20
      vertex 50 10 20
    endloop
  endfacet
  facet normal 0 1 -0
    outer loop
      vertex 43.6 20 20
      vertex 35.4 20 30
      vertex 43.6 20 30
    endloop
  endfacet
  facet normal 0 1 0
    outer loop
      vertex 35.4 20 30
      vertex 43.6 20 20
      vertex 35.4 20 20
    endloop
  endfacet
  facet normal 0 1 0
    outer loop
      vertex 50 20 80
      vertex 26.4634 20 73.9233
      vertex 0 20 80
    endloop
  endfacet
  facet normal 0 1 0
    outer loop
      vertex 50 20 80
      vertex 29.3262 20 73.3148
      vertex 26.4634 20 73.9233
    endloop
  endfacet
  facet normal 0 1 0
    outer loop
      vertex 50 20 80
      vertex 32 20 72.1244
      vertex 29.3262 20 73.3148
    endloop
  endfacet
  facet normal 0 1 0
    outer loop
      vertex 50 20 80
      vertex 34.3678 20 70.404
      vertex 32 20 72.1244
    endloop
  endfacet
  facet normal 0 1 0
    outer loop
      vertex 50 20 80
      vertex 36.3262 20 68.229
      vertex 34.3678 20 70.404
    endloop
  endfacet
  facet normal 0 1 0
    outer loop
      vertex 50 20 80
      vertex 37.7896 20 65.6943
      vertex 36.3262 20 68.229
    endloop
  endfacet
  facet normal 0 1 0
    outer loop
      vertex 50 20 80
      vertex 38.6941 20 62.9108
      vertex 37.7896 20 65.6943
    endloop
  endfacet
  facet normal 0 1 0
    outer loop
      vertex 50 20 80
      vertex 39 20 60
      vertex 38.6941 20 62.9108
    endloop
  endfacet
  facet normal 0 1 0
    outer loop
      vertex 50 20 80
      vertex 38.6941 20 57.0892
      vertex 39 20 60
    endloop
  endfacet
  facet normal 0 1 -0
    outer loop
      vertex 50 20 30
      vertex 38.6941 20 57.0892
      vertex 50 20 80
    endloop
  endfacet
  facet normal 0 1 0
    outer loop
      vertex 26.4634 20 46.0767
      vertex 25.4 20 40
      vertex 23.5366 20 46.0767
    endloop
  endfacet
  facet normal 0 1 0
    outer loop
      vertex 29.3262 20 46.6852
      vertex 25.4 20 40
      vertex 26.4634 20 46.0767
    endloop
  endfacet
  facet normal 0 1 0
    outer loop
      vertex 32 20 47.8756
      vertex 25.4 20 40
      vertex 29.3262 20 46.6852
    endloop
  endfacet
  facet normal 0 1 0
    outer loop
      vertex 35.4 20 30
      vertex 32 20 47.8756
      vertex 34.3678 20 49.596
    endloop
  endfacet
  facet normal 0 1 0
    outer loop
      vertex 38.6941 20 57.0892
      vertex 50 20 30
      vertex 37.7896 20 54.3057
    endloop
  endfacet
  facet normal 0 1 0
    outer loop
      vertex 50 20 30
      vertex 36.3262 20 51.771
      vertex 37.7896 20 54.3057
    endloop
  endfacet
  facet normal 0 1 -0
    outer loop
      vertex 43.6 20 30
      vertex 36.3262 20 51.771
      vertex 50 20 30
    endloop
  endfacet
  facet normal 0 1 0
    outer loop
      vertex 36.3262 20 51.771
      vertex 43.6 20 30
      vertex 34.3678 20 49.596
    endloop
  endfacet
  facet normal 0 1 -0
    outer loop
      vertex 35.4 20 30
      vertex 34.3678 20 49.596
      vertex 43.6 20 30
    endloop
  endfacet
  facet normal 0 1 0
    outer loop
      vertex 32 20 47.8756
      vertex 35.4 20 30
      vertex 25.4 20 40
    endloop
  endfacet
  facet normal 0 1 0
    outer loop
      vertex 25.4 20 40
      vertex 35.4 20 30
      vertex 25.4 20 30
    endloop
  endfacet
  facet normal 0 1 -0
    outer loop
      vertex 23.5366 20 73.9233
      vertex 0 20 80
      vertex 26.4634 20 73.9233
    endloop
  endfacet
  facet normal 0 1 -0
    outer loop
      vertex 20.6738 20 73.3148
      vertex 0 20 80
      vertex 23.5366 20 73.9233
    endloop
  endfacet
  facet normal 0 1 -0
    outer loop
      vertex 18 20 72.1244
      vertex 0 20 80
      vertex 20.6738 20 73.3148
    endloop
  endfacet
  facet normal 0 1 -0
    outer loop
      vertex 15.6322 20 70.404
      vertex 0 20 80
      vertex 18 20 72.1244
    endloop
  endfacet
  facet normal 0 1 -0
    outer loop
      vertex 13.6738 20 68.229
      vertex 0 20 80
      vertex 15.6322 20 70.404
    endloop
  endfacet
  facet normal 0 1 -0
    outer loop
      vertex 12.2104 20 65.6943
      vertex 0 20 80
      vertex 13.6738 20 68.229
    endloop
  endfacet
  facet normal 0 1 -0
    outer loop
      vertex 11.3059 20 62.9108
      vertex 0 20 80
      vertex 12.2104 20 65.6943
    endloop
  endfacet
  facet normal 0 1 -0
    outer loop
      vertex 11 20 60
      vertex 0 20 80
      vertex 11.3059 20 62.9108
    endloop
  endfacet
  facet normal 0 1 0
    outer loop
      vertex 11.3059 20 57.0892
      vertex 0 20 80
      vertex 11 20 60
    endloop
  endfacet
  facet normal 0 1 0
    outer loop
      vertex 5 20 30
      vertex 11.3059 20 57.0892
      vertex 12.2104 20 54.3057
    endloop
  endfacet
  facet normal 0 1 0
    outer loop
      vertex 25.4 20 40
      vertex 20.6738 20 46.6852
      vertex 23.5366 20 46.0767
    endloop
  endfacet
  facet normal 0 1 0
    outer loop
      vertex 15 20 40
      vertex 20.6738 20 46.6852
      vertex 25.4 20 40
    endloop
  endfacet
  facet normal 0 1 0
    outer loop
      vertex 20.6738 20 46.6852
      vertex 15 20 40
      vertex 18 20 47.8756
    endloop
  endfacet
  facet normal 0 1 0
    outer loop
      vertex 18 20 47.8756
      vertex 15 20 40
      vertex 15.6322 20 49.596
    endloop
  endfacet
  facet normal 0 1 -0
    outer loop
      vertex 15 20 40
      vertex 13.6738 20 51.771
      vertex 15.6322 20 49.596
    endloop
  endfacet
  facet normal 0 1 0
    outer loop
      vertex 5 20 30
      vertex 13.6738 20 51.771
      vertex 15 20 40
    endloop
  endfacet
  facet normal 0 1 0
    outer loop
      vertex 13.6738 20 51.771
      vertex 5 20 30
      vertex 12.2104 20 54.3057
    endloop
  endfacet
  facet normal 0 1 0
    outer loop
      vertex 5 20 30
      vertex 15 20 40
      vertex 15 20 30
    endloop
  endfacet
  facet normal 0 1 0
    outer loop
      vertex 11.3059 20 57.0892
      vertex 5 20 30
      vertex 0 20 25
    endloop
  endfacet
  facet normal 0 1 0
    outer loop
      vertex 0 20 25
      vertex 5 20 30
      vertex 5 20 25
    endloop
  endfacet
  facet normal 0 1 0
    outer loop
      vertex 11.3059 20 57.0892
      vertex 0 20 25
      vertex 0 20 80
    endloop
  endfacet
  facet normal 0 -1 0
    outer loop
      vertex 0 0 80
      vertex 23.5366 0 73.9233
      vertex 50 0 80
    endloop
  endfacet
  facet normal 0 -1 0
    outer loop
      vertex 0 0 80
      vertex 20.6738 0 73.3148
      vertex 23.5366 0 73.9233
    endloop
  endfacet
  facet normal 0 -1 0
    outer loop
      vertex 0 0 80
      vertex 18 0 72.1244
      vertex 20.6738 0 73.3148
    endloop
  endfacet
  facet normal 0 -1 0
    outer loop
      vertex 0 0 80
      vertex 15.6322 0 70.404
      vertex 18 0 72.1244
    endloop
  endfacet
  facet normal 0 -1 0
    outer loop
      vertex 0 0 80
      vertex 13.6738 0 68.229
      vertex 15.6322 0 70.404
    endloop
  endfacet
  facet normal 0 -1 0
    outer loop
      vertex 0 0 80
      vertex 12.2104 0 65.6943
      vertex 13.6738 0 68.229
    endloop
  endfacet
  facet normal 0 -1 0
    outer loop
      vertex 0 0 80
      vertex 11.3059 0 62.9108
      vertex 12.2104 0 65.6943
    endloop
  endfacet
  facet normal 0 -1 0
    outer loop
      vertex 0 0 80
      vertex 11 0 60
      vertex 11.3059 0 62.9108
    endloop
  endfacet
  facet normal 0 -1 0
    outer loop
      vertex 0 0 80
      vertex 11.3059 0 57.0892
      vertex 11 0 60
    endloop
  endfacet
  facet normal 0 -1 0
    outer loop
      vertex 0 0 25
      vertex 11.3059 0 57.0892
      vertex 0 0 80
    endloop
  endfacet
  facet normal 0 -1 -0
    outer loop
      vertex 23.5366 0 46.0767
      vertex 19.6 0 40
      vertex 26.4634 0 46.0767
    endloop
  endfacet
  facet normal 0 -1 -0
    outer loop
      vertex 20.6738 0 46.6852
      vertex 19.6 0 40
      vertex 23.5366 0 46.0767
    endloop
  endfacet
  facet normal 0 -1 0
    outer loop
      vertex 18 0 47.8756
      vertex 19.6 0 40
      vertex 20.6738 0 46.6852
    endloop
  endfacet
  facet normal 0 -1 0
    outer loop
      vertex 15.6322 0 49.596
      vertex 19.6 0 40
      vertex 18 0 47.8756
    endloop
  endfacet
  facet normal 0 -1 0
    outer loop
      vertex 9.6 0 30
      vertex 15.6322 0 49.596
      vertex 13.6738 0 51.771
    endloop
  endfacet
  facet normal 0 -1 0
    outer loop
      vertex 9.6 0 30
      vertex 13.6738 0 51.771
      vertex 12.2104 0 54.3057
    endloop
  endfacet
  facet normal 0 -1 -0
    outer loop
      vertex 15.6322 0 49.596
      vertex 9.6 0 30
      vertex 19.6 0 40
    endloop
  endfacet
  facet normal 0 -1 -0
    outer loop
      vertex 11.3059 0 57.0892
      vertex 0 0 25
      vertex 12.2104 0 54.3057
    endloop
  endfacet
  facet normal 0 -1 0
    outer loop
      vertex 12.2104 0 54.3057
      vertex 0 0 25
      vertex 9.6 0 30
    endloop
  endfacet
  facet normal 0 -1 0
    outer loop
      vertex 6.4 0 25
      vertex 9.6 0 30
      vertex 0 0 25
    endloop
  endfacet
  facet normal 0 -1 0
    outer loop
      vertex 9.6 0 19
      vertex 6.4 0 25
      vertex 6.4 0 19
    endloop
  endfacet
  facet normal 0 -1 0
    outer loop
      vertex 6.4 0 25
      vertex 9.6 0 19
      vertex 9.6 0 30
    endloop
  endfacet
  facet normal 0 -1 0
    outer loop
      vertex 26.4634 0 73.9233
      vertex 50 0 80
      vertex 23.5366 0 73.9233
    endloop
  endfacet
  facet normal 0 -1 0
    outer loop
      vertex 29.3262 0 73.3148
      vertex 50 0 80
      vertex 26.4634 0 73.9233
    endloop
  endfacet
  facet normal 0 -1 0
    outer loop
      vertex 32 0 72.1244
      vertex 50 0 80
      vertex 29.3262 0 73.3148
    endloop
  endfacet
  facet normal 0 -1 0
    outer loop
      vertex 34.3678 0 70.404
      vertex 50 0 80
      vertex 32 0 72.1244
    endloop
  endfacet
  facet normal 0 -1 0
    outer loop
      vertex 36.3262 0 68.229
      vertex 50 0 80
      vertex 34.3678 0 70.404
    endloop
  endfacet
  facet normal 0 -1 0
    outer loop
      vertex 37.7896 0 65.6943
      vertex 50 0 80
      vertex 36.3262 0 68.229
    endloop
  endfacet
  facet normal 0 -1 0
    outer loop
      vertex 38.6941 0 62.9108
      vertex 50 0 80
      vertex 37.7896 0 65.6943
    endloop
  endfacet
  facet normal 0 -1 0
    outer loop
      vertex 39 0 60
      vertex 50 0 80
      vertex 38.6941 0 62.9108
    endloop
  endfacet
  facet normal 0 -1 0
    outer loop
      vertex 38.6941 0 57.0892
      vertex 50 0 80
      vertex 39 0 60
    endloop
  endfacet
  facet normal 0 -1 0
    outer loop
      vertex 40.4 0 40
      vertex 38.6941 0 57.0892
      vertex 37.7896 0 54.3057
    endloop
  endfacet
  facet normal 0 -1 0
    outer loop
      vertex 40.4 0 40
      vertex 26.4634 0 46.0767
      vertex 19.6 0 40
    endloop
  endfacet
  facet normal 0 -1 0
    outer loop
      vertex 26.4634 0 46.0767
      vertex 40.4 0 40
      vertex 29.3262 0 46.6852
    endloop
  endfacet
  facet normal 0 -1 0
    outer loop
      vertex 29.3262 0 46.6852
      vertex 40.4 0 40
      vertex 32 0 47.8756
    endloop
  endfacet
  facet normal 0 -1 0
    outer loop
      vertex 40.4 0 40
      vertex 34.3678 0 49.596
      vertex 32 0 47.8756
    endloop
  endfacet
  facet normal 0 -1 0
    outer loop
      vertex 40.4 0 40
      vertex 36.3262 0 51.771
      vertex 34.3678 0 49.596
    endloop
  endfacet
  facet normal 0 -1 0
    outer loop
      vertex 40.4 0 40
      vertex 37.7896 0 54.3057
      vertex 36.3262 0 51.771
    endloop
  endfacet
  facet normal 0 -1 0
    outer loop
      vertex 45.8 0 30
      vertex 38.6941 0 57.0892
      vertex 40.4 0 40
    endloop
  endfacet
  facet normal 0 -1 0
    outer loop
      vertex 45.8 0 30
      vertex 40.4 0 40
      vertex 40.4 0 30
    endloop
  endfacet
  facet normal 0 -1 0
    outer loop
      vertex 38.6941 0 57.0892
      vertex 45.8 0 30
      vertex 50 0 80
    endloop
  endfacet
  facet normal 0 -1 0
    outer loop
      vertex 50 0 20
      vertex 45.8 0 30
      vertex 45.8 0 20
    endloop
  endfacet
  facet normal 0 -1 0
    outer loop
      vertex 45.8 0 30
      vertex 50 0 20
      vertex 50 0 80
    endloop
  endfacet
  facet normal 0 -1 -0
    outer loop
      vertex 19.6 0 40
      vertex 9.6 0 30
      vertex 19.6 0 30
    endloop
  endfacet
  facet normal -1 0 0
    outer loop
      vertex 6.4 4.4 9
      vertex 6.4 15.6 10
      vertex 6.4 15.6 9
    endloop
  endfacet
  facet normal -1 -0 0
    outer loop
      vertex 6.4 15.6 10
      vertex 6.4 4.4 9
      vertex 6.4 4.4 19
    endloop
  endfacet
  facet normal -1 0 0
    outer loop
      vertex 6.4 15.6 10
      vertex 6.4 4.4 19
      vertex 6.4 15.6 25
    endloop
  endfacet
  facet normal -1 0 0
    outer loop
      vertex 6.4 0 25
      vertex 6.4 4.4 19
      vertex 6.4 0 19
    endloop
  endfacet
  facet normal -1 0 0
    outer loop
      vertex 6.4 4.4 19
      vertex 6.4 0 25
      vertex 6.4 15.6 25
    endloop
  endfacet
  facet normal -1 0 0
    outer loop
      vertex 6.4 4.4 0
      vertex 6.4 15.6 9
      vertex 6.4 15.6 0
    endloop
  endfacet
  facet normal -1 -0 0
    outer loop
      vertex 6.4 15.6 9
      vertex 6.4 4.4 0
      vertex 6.4 4.4 9
    endloop
  endfacet
  facet normal 1 -0 0
    outer loop
      vertex 43.6 4.4 10
      vertex 43.6 15.6 0
      vertex 43.6 15.6 10
    endloop
  endfacet
  facet normal 1 0 0
    outer loop
      vertex 43.6 15.6 0
      vertex 43.6 4.4 10
      vertex 43.6 4.4 0
    endloop
  endfacet
  facet normal 0 1 0
    outer loop
      vertex 43.6 15.6 10
      vertex 6.4 15.6 9
      vertex 6.4 15.6 10
    endloop
  endfacet
  facet normal 0 1 -0
    outer loop
      vertex 43.6 15.6 0
      vertex 6.4 15.6 9
      vertex 43.6 15.6 10
    endloop
  endfacet
  facet normal 0 1 0
    outer loop
      vertex 6.4 15.6 9
      vertex 43.6 15.6 0
      vertex 6.4 15.6 0
    endloop
  endfacet
  facet normal 0 0 -1
    outer loop
      vertex 6.4 4.4 0
      vertex 43.6 15.6 0
      vertex 43.6 4.4 0
    endloop
  endfacet
  facet normal -0 0 -1
    outer loop
      vertex 43.6 15.6 0
      vertex 6.4 4.4 0
      vertex 6.4 15.6 0
    endloop
  endfacet
  facet normal 0 -1 0
    outer loop
      vertex 6.4 4.4 19
      vertex 10 4.4 10
      vertex 9.6 4.4 19
    endloop
  endfacet
  facet normal 0 -1 0
    outer loop
      vertex 6.4 4.4 9
      vertex 10 4.4 10
      vertex 6.4 4.4 19
    endloop
  endfacet
  facet normal 0 -1 -0
    outer loop
      vertex 10 4.4 10
      vertex 6.4 4.4 9
      vertex 10 4.4 9
    endloop
  endfacet
  facet normal 0 -1 0
    outer loop
      vertex 9.6 4.4 19
      vertex 19.6 4.4 30
      vertex 9.6 4.4 30
    endloop
  endfacet
  facet normal 0 -1 0
    outer loop
      vertex 10 4.4 10
      vertex 19.6 4.4 30
      vertex 9.6 4.4 19
    endloop
  endfacet
  facet normal 0 -1 0
    outer loop
      vertex 40.4 4.4 30
      vertex 43.6 4.4 20
      vertex 45.8 4.4 30
    endloop
  endfacet
  facet normal 0 -1 0
    outer loop
      vertex 19.6 4.4 30
      vertex 43.6 4.4 20
      vertex 40.4 4.4 30
    endloop
  endfacet
  facet normal 0 -1 0
    outer loop
      vertex 43.6 4.4 10
      vertex 19.6 4.4 30
      vertex 10 4.4 10
    endloop
  endfacet
  facet normal 0 -1 0
    outer loop
      vertex 19.6 4.4 30
      vertex 43.6 4.4 10
      vertex 43.6 4.4 20
    endloop
  endfacet
  facet normal 0 -1 0
    outer loop
      vertex 19.6 4.4 30
      vertex 40.4 4.4 40
      vertex 19.6 4.4 40
    endloop
  endfacet
  facet normal 0 -1 -0
    outer loop
      vertex 40.4 4.4 40
      vertex 19.6 4.4 30
      vertex 40.4 4.4 30
    endloop
  endfacet
  facet normal 0 -1 -0
    outer loop
      vertex 45.8 4.4 30
      vertex 43.6 4.4 20
      vertex 45.8 4.4 20
    endloop
  endfacet
  facet normal 0 -1 0
    outer loop
      vertex 6.4 4.4 9
      vertex 6.4 4.4 0
      vertex 10 4.4 9
    endloop
  endfacet
  facet normal 0 -1 0
    outer loop
      vertex 10 4.4 9
      vertex 43.6 4.4 10
      vertex 10 4.4 10
    endloop
  endfacet
  facet normal 0 -1 0
    outer loop
      vertex 43.6 4.4 0
      vertex 10 4.4 9
      vertex 6.4 4.4 0
    endloop
  endfacet
  facet normal 0 -1 0
    outer loop
      vertex 10 4.4 9
      vertex 43.6 4.4 0
      vertex 43.6 4.4 10
    endloop
  endfacet
  facet normal 0 0 -1
    outer loop
      vertex 6.4 0 19
      vertex 9.6 4.4 19
      vertex 9.6 0 19
    endloop
  endfacet
  facet normal -0 0 -1
    outer loop
      vertex 9.6 4.4 19
      vertex 6.4 0 19
      vertex 6.4 4.4 19
    endloop
  endfacet
  facet normal 1 -0 0
    outer loop
      vertex 9.6 0 30
      vertex 9.6 4.4 19
      vertex 9.6 4.4 30
    endloop
  endfacet
  facet normal 1 0 0
    outer loop
      vertex 9.6 4.4 19
      vertex 9.6 0 30
      vertex 9.6 0 19
    endloop
  endfacet
  facet normal 0 0 -1
    outer loop
      vertex 9.6 0 30
      vertex 19.6 4.4 30
      vertex 19.6 0 30
    endloop
  endfacet
  facet normal -0 0 -1
    outer loop
      vertex 19.6 4.4 30
      vertex 9.6 0 30
      vertex 9.6 4.4 30
    endloop
  endfacet
  facet normal 1 -0 0
    outer loop
      vertex 19.6 0 40
      vertex 19.6 4.4 30
      vertex 19.6 4.4 40
    endloop
  endfacet
  facet normal 1 0 0
    outer loop
      vertex 19.6 4.4 30
      vertex 19.6 0 40
      vertex 19.6 0 30
    endloop
  endfacet
  facet normal 0 0 -1
    outer loop
      vertex 19.6 0 40
      vertex 40.4 4.4 40
      vertex 40.4 0 40
    endloop
  endfacet
  facet normal -0 0 -1
    outer loop
      vertex 40.4 4.4 40
      vertex 19.6 0 40
      vertex 19.6 4.4 40
    endloop
  endfacet
  facet normal -1 0 0
    outer loop
      vertex 40.4 0 30
      vertex 40.4 4.4 40
      vertex 40.4 4.4 30
    endloop
  endfacet
  facet normal -1 -0 0
    outer loop
      vertex 40.4 4.4 40
      vertex 40.4 0 30
      vertex 40.4 0 40
    endloop
  endfacet
  facet normal 0 0 -1
    outer loop
      vertex 40.4 0 30
      vertex 45.8 4.4 30
      vertex 45.8 0 30
    endloop
  endfacet
  facet normal -0 0 -1
    outer loop
      vertex 45.8 4.4 30
      vertex 40.4 0 30
      vertex 40.4 4.4 30
    endloop
  endfacet
  facet normal -1 0 0
    outer loop
      vertex 45.8 0 20
      vertex 45.8 4.4 30
      vertex 45.8 4.4 20
    endloop
  endfacet
  facet normal -1 -0 0
    outer loop
      vertex 45.8 4.4 30
      vertex 45.8 0 20
      vertex 45.8 0 30
    endloop
  endfacet
  facet normal 1 0 0
    outer loop
      vertex 43.6 20 30
      vertex 43.6 15.6 20
      vertex 43.6 20 20
    endloop
  endfacet
  facet normal 1 -0 0
    outer loop
      vertex 43.6 10 30
      vertex 43.6 15.6 20
      vertex 43.6 20 30
    endloop
  endfacet
  facet normal 1 0 0
    outer loop
      vertex 43.6 10 20
      vertex 43.6 15.6 20
      vertex 43.6 10 30
    endloop
  endfacet
  facet normal 1 0 0
    outer loop
      vertex 43.6 15.6 20
      vertex 43.6 10 20
      vertex 43.6 15.6 10
    endloop
  endfacet
  facet normal 1 0 0
    outer loop
      vertex 43.6 4.4 10
      vertex 43.6 10 20
      vertex 43.6 4.4 20
    endloop
  endfacet
  facet normal 1 0 0
    outer loop
      vertex 43.6 10 20
      vertex 43.6 4.4 10
      vertex 43.6 15.6 10
    endloop
  endfacet
  facet normal 0 0 -1
    outer loop
      vertex 45.8 4.4 20
      vertex 50 0 20
      vertex 45.8 0 20
    endloop
  endfacet
  facet normal 0 0 -1
    outer loop
      vertex 50 0 20
      vertex 45.8 4.4 20
      vertex 50 10 20
    endloop
  endfacet
  facet normal 0 0 -1
    outer loop
      vertex 43.6 10 20
      vertex 45.8 4.4 20
      vertex 43.6 4.4 20
    endloop
  endfacet
  facet normal 0 0 -1
    outer loop
      vertex 45.8 4.4 20
      vertex 43.6 10 20
      vertex 50 10 20
    endloop
  endfacet
  facet normal 0 1 -0
    outer loop
      vertex 50 10 20
      vertex 43.6 10 30
      vertex 50 10 30
    endloop
  endfacet
  facet normal 0 1 0
    outer loop
      vertex 43.6 10 30
      vertex 50 10 20
      vertex 43.6 10 20
    endloop
  endfacet
  facet normal 0 0 -1
    outer loop
      vertex 43.6 10 30
      vertex 50 20 30
      vertex 50 10 30
    endloop
  endfacet
  facet normal -0 0 -1
    outer loop
      vertex 50 20 30
      vertex 43.6 10 30
      vertex 43.6 20 30
    endloop
  endfacet
  facet normal 0 0 -1
    outer loop
      vertex 35.4 15.6 20
      vertex 43.6 20 20
      vertex 43.6 15.6 20
    endloop
  endfacet
  facet normal -0 0 -1
    outer loop
      vertex 43.6 20 20
      vertex 35.4 15.6 20
      vertex 35.4 20 20
    endloop
  endfacet
  facet normal 0 1 0
    outer loop
      vertex 43.6 15.6 20
      vertex 43.6 15.6 10
      vertex 35.4 15.6 20
    endloop
  endfacet
  facet normal 0 1 -0
    outer loop
      vertex 35.4 15.6 20
      vertex 25.4 15.6 30
      vertex 35.4 15.6 30
    endloop
  endfacet
  facet normal 0 1 0
    outer loop
      vertex 6.4 15.6 10
      vertex 25.4 15.6 30
      vertex 35.4 15.6 20
    endloop
  endfacet
  facet normal 0 1 0
    outer loop
      vertex 15 15.6 30
      vertex 6.4 15.6 25
      vertex 5 15.6 30
    endloop
  endfacet
  facet normal 0 1 0
    outer loop
      vertex 25.4 15.6 30
      vertex 6.4 15.6 10
      vertex 15 15.6 30
    endloop
  endfacet
  facet normal 0 1 0
    outer loop
      vertex 6.4 15.6 10
      vertex 35.4 15.6 20
      vertex 43.6 15.6 10
    endloop
  endfacet
  facet normal 0 1 0
    outer loop
      vertex 15 15.6 30
      vertex 6.4 15.6 10
      vertex 6.4 15.6 25
    endloop
  endfacet
  facet normal 0 1 -0
    outer loop
      vertex 25.4 15.6 30
      vertex 15 15.6 40
      vertex 25.4 15.6 40
    endloop
  endfacet
  facet normal 0 1 0
    outer loop
      vertex 15 15.6 40
      vertex 25.4 15.6 30
      vertex 15 15.6 30
    endloop
  endfacet
  facet normal 0 1 0
    outer loop
      vertex 5 15.6 30
      vertex 6.4 15.6 25
      vertex 5 15.6 25
    endloop
  endfacet
  facet normal 0 0 -1
    outer loop
      vertex 25.4 15.6 30
      vertex 35.4 20 30
      vertex 35.4 15.6 30
    endloop
  endfacet
  facet normal -0 0 -1
    outer loop
      vertex 35.4 20 30
      vertex 25.4 15.6 30
      vertex 25.4 20 30
    endloop
  endfacet
  facet normal -1 0 0
    outer loop
      vertex 35.4 15.6 20
      vertex 35.4 20 30
      vertex 35.4 20 20
    endloop
  endfacet
  facet normal -1 -0 0
    outer loop
      vertex 35.4 20 30
      vertex 35.4 15.6 20
      vertex 35.4 15.6 30
    endloop
  endfacet
  facet normal 1 -0 0
    outer loop
      vertex 15 15.6 40
      vertex 15 20 30
      vertex 15 20 40
    endloop
  endfacet
  facet normal 1 0 0
    outer loop
      vertex 15 20 30
      vertex 15 15.6 40
      vertex 15 15.6 30
    endloop
  endfacet
  facet normal 0 0 -1
    outer loop
      vertex 15 15.6 40
      vertex 25.4 20 40
      vertex 25.4 15.6 40
    endloop
  endfacet
  facet normal -0 0 -1
    outer loop
      vertex 25.4 20 40
      vertex 15 15.6 40
      vertex 15 20 40
    endloop
  endfacet
  facet normal -1 0 0
    outer loop
      vertex 25.4 15.6 30
      vertex 25.4 20 40
      vertex 25.4 20 30
    endloop
  endfacet
  facet normal -1 -0 0
    outer loop
      vertex 25.4 20 40
      vertex 25.4 15.6 30
      vertex 25.4 15.6 40
    endloop
  endfacet
  facet normal 1 -0 0
    outer loop
      vertex 5 15.6 30
      vertex 5 20 25
      vertex 5 20 30
    endloop
  endfacet
  facet normal 1 0 0
    outer loop
      vertex 5 20 25
      vertex 5 15.6 30
      vertex 5 15.6 25
    endloop
  endfacet
  facet normal 0 0 -1
    outer loop
      vertex 5 15.6 30
      vertex 15 20 30
      vertex 15 15.6 30
    endloop
  endfacet
  facet normal -0 0 -1
    outer loop
      vertex 15 20 30
      vertex 5 15.6 30
      vertex 5 20 30
    endloop
  endfacet
  facet normal 0 0 -1
    outer loop
      vertex 6.4 0 25
      vertex 5 15.6 25
      vertex 6.4 15.6 25
    endloop
  endfacet
  facet normal 0 0 -1
    outer loop
      vertex 0 0 25
      vertex 5 15.6 25
      vertex 6.4 0 25
    endloop
  endfacet
  facet normal 0 0 -1
    outer loop
      vertex 0 20 25
      vertex 5 15.6 25
      vertex 0 0 25
    endloop
  endfacet
  facet normal 0 0 -1
    outer loop
      vertex 5 15.6 25
      vertex 0 20 25
      vertex 5 20 25
    endloop
  endfacet
  facet normal -0.994522 0 -0.104529
    outer loop
      vertex 39 0 60
      vertex 38.6941 20 62.9108
      vertex 39 20 60
    endloop
  endfacet
  facet normal -0.994522 -0 -0.104529
    outer loop
      vertex 38.6941 20 62.9108
      vertex 39 0 60
      vertex 38.6941 0 62.9108
    endloop
  endfacet
  facet normal -0.207913 0 -0.978147
    outer loop
      vertex 26.4634 0 73.9233
      vertex 29.3262 20 73.3148
      vertex 29.3262 0 73.3148
    endloop
  endfacet
  facet normal -0.207913 0 -0.978147
    outer loop
      vertex 29.3262 20 73.3148
      vertex 26.4634 0 73.9233
      vertex 26.4634 20 73.9233
    endloop
  endfacet
  facet normal -0.951057 0 -0.309017
    outer loop
      vertex 38.6941 0 62.9108
      vertex 37.7896 20 65.6943
      vertex 38.6941 20 62.9108
    endloop
  endfacet
  facet normal -0.951057 -0 -0.309017
    outer loop
      vertex 37.7896 20 65.6943
      vertex 38.6941 0 62.9108
      vertex 37.7896 0 65.6943
    endloop
  endfacet
  facet normal 0.866026 0 -0.499999
    outer loop
      vertex 13.6738 0 68.229
      vertex 12.2104 20 65.6943
      vertex 13.6738 20 68.229
    endloop
  endfacet
  facet normal 0.866026 0 -0.499999
    outer loop
      vertex 12.2104 20 65.6943
      vertex 13.6738 0 68.229
      vertex 12.2104 0 65.6943
    endloop
  endfacet
  facet normal -0.994522 0 0.104529
    outer loop
      vertex 38.6941 0 57.0892
      vertex 39 20 60
      vertex 38.6941 20 57.0892
    endloop
  endfacet
  facet normal -0.994522 0 0.104529
    outer loop
      vertex 39 20 60
      vertex 38.6941 0 57.0892
      vertex 39 0 60
    endloop
  endfacet
  facet normal 0 0 -1
    outer loop
      vertex 23.5366 0 73.9233
      vertex 26.4634 20 73.9233
      vertex 26.4634 0 73.9233
    endloop
  endfacet
  facet normal -0 0 -1
    outer loop
      vertex 26.4634 20 73.9233
      vertex 23.5366 0 73.9233
      vertex 23.5366 20 73.9233
    endloop
  endfacet
  facet normal -0.406735 0 -0.913546
    outer loop
      vertex 29.3262 0 73.3148
      vertex 32 20 72.1244
      vertex 32 0 72.1244
    endloop
  endfacet
  facet normal -0.406735 0 -0.913546
    outer loop
      vertex 32 20 72.1244
      vertex 29.3262 0 73.3148
      vertex 29.3262 20 73.3148
    endloop
  endfacet
  facet normal 0.994522 -0 0.104528
    outer loop
      vertex 11 0 60
      vertex 11.3059 20 57.0892
      vertex 11 20 60
    endloop
  endfacet
  facet normal 0.994522 0 0.104528
    outer loop
      vertex 11.3059 20 57.0892
      vertex 11 0 60
      vertex 11.3059 0 57.0892
    endloop
  endfacet
  facet normal 0.951057 0 -0.309017
    outer loop
      vertex 12.2104 0 65.6943
      vertex 11.3059 20 62.9108
      vertex 12.2104 20 65.6943
    endloop
  endfacet
  facet normal 0.951057 0 -0.309017
    outer loop
      vertex 11.3059 20 62.9108
      vertex 12.2104 0 65.6943
      vertex 11.3059 0 62.9108
    endloop
  endfacet
  facet normal 0.406735 0 -0.913546
    outer loop
      vertex 18 0 72.1244
      vertex 20.6738 20 73.3148
      vertex 20.6738 0 73.3148
    endloop
  endfacet
  facet normal 0.406735 0 -0.913546
    outer loop
      vertex 20.6738 20 73.3148
      vertex 18 0 72.1244
      vertex 18 20 72.1244
    endloop
  endfacet
  facet normal -0 0 1
    outer loop
      vertex 23.5366 20 46.0767
      vertex 26.4634 0 46.0767
      vertex 26.4634 20 46.0767
    endloop
  endfacet
  facet normal 0 0 1
    outer loop
      vertex 26.4634 0 46.0767
      vertex 23.5366 20 46.0767
      vertex 23.5366 0 46.0767
    endloop
  endfacet
  facet normal -0.866026 0 -0.499999
    outer loop
      vertex 37.7896 0 65.6943
      vertex 36.3262 20 68.229
      vertex 37.7896 20 65.6943
    endloop
  endfacet
  facet normal -0.866026 -0 -0.499999
    outer loop
      vertex 36.3262 20 68.229
      vertex 37.7896 0 65.6943
      vertex 36.3262 0 68.229
    endloop
  endfacet
  facet normal -0.587786 0 -0.809017
    outer loop
      vertex 32 0 72.1244
      vertex 34.3678 20 70.404
      vertex 34.3678 0 70.404
    endloop
  endfacet
  facet normal -0.587786 0 -0.809017
    outer loop
      vertex 34.3678 20 70.404
      vertex 32 0 72.1244
      vertex 32 20 72.1244
    endloop
  endfacet
  facet normal 0.587785 0 -0.809017
    outer loop
      vertex 15.6322 0 70.404
      vertex 18 20 72.1244
      vertex 18 0 72.1244
    endloop
  endfacet
  facet normal 0.587785 0 -0.809017
    outer loop
      vertex 18 20 72.1244
      vertex 15.6322 0 70.404
      vertex 15.6322 20 70.404
    endloop
  endfacet
  facet normal 0.743145 0 -0.669131
    outer loop
      vertex 15.6322 0 70.404
      vertex 13.6738 20 68.229
      vertex 15.6322 20 70.404
    endloop
  endfacet
  facet normal 0.743145 0 -0.669131
    outer loop
      vertex 13.6738 20 68.229
      vertex 15.6322 0 70.404
      vertex 13.6738 0 68.229
    endloop
  endfacet
  facet normal -0.866026 0 0.499999
    outer loop
      vertex 36.3262 0 51.771
      vertex 37.7896 20 54.3057
      vertex 36.3262 20 51.771
    endloop
  endfacet
  facet normal -0.866026 0 0.499999
    outer loop
      vertex 37.7896 20 54.3057
      vertex 36.3262 0 51.771
      vertex 37.7896 0 54.3057
    endloop
  endfacet
  facet normal -0.406737 0 0.913545
    outer loop
      vertex 29.3262 20 46.6852
      vertex 32 0 47.8756
      vertex 32 20 47.8756
    endloop
  endfacet
  facet normal -0.406737 0 0.913545
    outer loop
      vertex 32 0 47.8756
      vertex 29.3262 20 46.6852
      vertex 29.3262 0 46.6852
    endloop
  endfacet
  facet normal 0.207912 0 0.978148
    outer loop
      vertex 20.6738 20 46.6852
      vertex 23.5366 0 46.0767
      vertex 23.5366 20 46.0767
    endloop
  endfacet
  facet normal 0.207912 0 0.978148
    outer loop
      vertex 23.5366 0 46.0767
      vertex 20.6738 20 46.6852
      vertex 20.6738 0 46.6852
    endloop
  endfacet
  facet normal 0.994522 0 -0.104528
    outer loop
      vertex 11.3059 0 62.9108
      vertex 11 20 60
      vertex 11.3059 20 62.9108
    endloop
  endfacet
  facet normal 0.994522 0 -0.104528
    outer loop
      vertex 11 20 60
      vertex 11.3059 0 62.9108
      vertex 11 0 60
    endloop
  endfacet
  facet normal -0.587785 0 0.809017
    outer loop
      vertex 32 20 47.8756
      vertex 34.3678 0 49.596
      vertex 34.3678 20 49.596
    endloop
  endfacet
  facet normal -0.587785 0 0.809017
    outer loop
      vertex 34.3678 0 49.596
      vertex 32 20 47.8756
      vertex 32 0 47.8756
    endloop
  endfacet
  facet normal -0.743145 0 0.66913
    outer loop
      vertex 34.3678 0 49.596
      vertex 36.3262 20 51.771
      vertex 34.3678 20 49.596
    endloop
  endfacet
  facet normal -0.743145 0 0.66913
    outer loop
      vertex 36.3262 20 51.771
      vertex 34.3678 0 49.596
      vertex 36.3262 0 51.771
    endloop
  endfacet
  facet normal -0.207912 0 0.978147
    outer loop
      vertex 26.4634 20 46.0767
      vertex 29.3262 0 46.6852
      vertex 29.3262 20 46.6852
    endloop
  endfacet
  facet normal -0.207912 0 0.978147
    outer loop
      vertex 29.3262 0 46.6852
      vertex 26.4634 20 46.0767
      vertex 26.4634 0 46.0767
    endloop
  endfacet
  facet normal -0.951057 0 0.309017
    outer loop
      vertex 37.7896 0 54.3057
      vertex 38.6941 20 57.0892
      vertex 37.7896 20 54.3057
    endloop
  endfacet
  facet normal -0.951057 0 0.309017
    outer loop
      vertex 38.6941 20 57.0892
      vertex 37.7896 0 54.3057
      vertex 38.6941 0 57.0892
    endloop
  endfacet
  facet normal -0.743145 0 -0.66913
    outer loop
      vertex 36.3262 0 68.229
      vertex 34.3678 20 70.404
      vertex 36.3262 20 68.229
    endloop
  endfacet
  facet normal -0.743145 -0 -0.66913
    outer loop
      vertex 34.3678 20 70.404
      vertex 36.3262 0 68.229
      vertex 34.3678 0 70.404
    endloop
  endfacet
  facet normal 0.207913 0 -0.978147
    outer loop
      vertex 20.6738 0 73.3148
      vertex 23.5366 20 73.9233
      vertex 23.5366 0 73.9233
    endloop
  endfacet
  facet normal 0.207913 0 -0.978147
    outer loop
      vertex 23.5366 20 73.9233
      vertex 20.6738 0 73.3148
      vertex 20.6738 20 73.3148
    endloop
  endfacet
  facet normal 0.587785 0 0.809018
    outer loop
      vertex 15.6322 20 49.596
      vertex 18 0 47.8756
      vertex 18 20 47.8756
    endloop
  endfacet
  facet normal 0.587785 0 0.809018
    outer loop
      vertex 18 0 47.8756
      vertex 15.6322 20 49.596
      vertex 15.6322 0 49.596
    endloop
  endfacet
  facet normal 0.743145 -0 0.669131
    outer loop
      vertex 13.6738 0 51.771
      vertex 15.6322 20 49.596
      vertex 13.6738 20 51.771
    endloop
  endfacet
  facet normal 0.743145 0 0.669131
    outer loop
      vertex 15.6322 20 49.596
      vertex 13.6738 0 51.771
      vertex 15.6322 0 49.596
    endloop
  endfacet
  facet normal 0.406737 0 0.913545
    outer loop
      vertex 18 20 47.8756
      vertex 20.6738 0 46.6852
      vertex 20.6738 20 46.6852
    endloop
  endfacet
  facet normal 0.406737 0 0.913545
    outer loop
      vertex 20.6738 0 46.6852
      vertex 18 20 47.8756
      vertex 18 0 47.8756
    endloop
  endfacet
  facet normal 0.951057 -0 0.309017
    outer loop
      vertex 11.3059 0 57.0892
      vertex 12.2104 20 54.3057
      vertex 11.3059 20 57.0892
    endloop
  endfacet
  facet normal 0.951057 0 0.309017
    outer loop
      vertex 12.2104 20 54.3057
      vertex 11.3059 0 57.0892
      vertex 12.2104 0 54.3057
    endloop
  endfacet
  facet normal 0.866026 -0 0.499999
    outer loop
      vertex 12.2104 0 54.3057
      vertex 13.6738 20 51.771
      vertex 12.2104 20 54.3057
    endloop
  endfacet
  facet normal 0.866026 0 0.499999
    outer loop
      vertex 13.6738 20 51.771
      vertex 12.2104 0 54.3057
      vertex 13.6738 0 51.771
    endloop
  endfacet
  facet normal -0 0 1
    outer loop
      vertex 0 20 80
      vertex 50 0 80
      vertex 50 20 80
    endloop
  endfacet
  facet normal 0 0 1
    outer loop
      vertex 50 0 80
      vertex 0 20 80
      vertex 0 0 80
    endloop
  endfacet
endsolid OpenSCAD_Model
