solid OpenSCAD_Model
  facet normal 0.994522 0.104529 0
    outer loop
      vertex 25 0 20
      vertex 24.4537 5.19779 0
      vertex 24.4537 5.19779 20
    endloop
  endfacet
  facet normal 0.994522 0.104529 0
    outer loop
      vertex 24.4537 5.19779 0
      vertex 25 0 20
      vertex 25 0 0
    endloop
  endfacet
  facet normal -0.994522 0.104529 0
    outer loop
      vertex -25 0 0
      vertex -24.4537 5.19779 20
      vertex -24.4537 5.19779 0
    endloop
  endfacet
  facet normal -0.994522 0.104529 0
    outer loop
      vertex -24.4537 5.19779 20
      vertex -25 0 0
      vertex -25 0 20
    endloop
  endfacet
  facet normal 0 1 -0
    outer loop
      vertex 2.61321 24.863 0
      vertex -2.61321 24.863 20
      vertex 2.61321 24.863 20
    endloop
  endfacet
  facet normal 0 1 0
    outer loop
      vertex -2.61321 24.863 20
      vertex 2.61321 24.863 0
      vertex -2.61321 24.863 0
    endloop
  endfacet
  facet normal 0 -1 0
    outer loop
      vertex -2.61321 -24.863 0
      vertex 2.61321 -24.863 20
      vertex -2.61321 -24.863 20
    endloop
  endfacet
  facet normal 0 -1 -0
    outer loop
      vertex 2.61321 -24.863 20
      vertex -2.61321 -24.863 0
      vertex 2.61321 -24.863 0
    endloop
  endfacet
  facet normal 0.587785 0.809017 -0
    outer loop
      vertex 16.7283 18.5786 0
      vertex 12.5 21.6506 20
      vertex 16.7283 18.5786 20
    endloop
  endfacet
  facet normal 0.587785 0.809017 0
    outer loop
      vertex 12.5 21.6506 20
      vertex 16.7283 18.5786 0
      vertex 12.5 21.6506 0
    endloop
  endfacet
  facet normal -0.743145 0.669131 0
    outer loop
      vertex -20.2254 14.6946 0
      vertex -16.7283 18.5786 20
      vertex -16.7283 18.5786 0
    endloop
  endfacet
  facet normal -0.743145 0.669131 0
    outer loop
      vertex -16.7283 18.5786 20
      vertex -20.2254 14.6946 0
      vertex -20.2254 14.6946 20
    endloop
  endfacet
  facet normal -0.866025 0.5 0
    outer loop
      vertex -22.8386 10.1684 0
      vertex -20.2254 14.6946 20
      vertex -20.2254 14.6946 0
    endloop
  endfacet
  facet normal -0.866025 0.5 0
    outer loop
      vertex -20.2254 14.6946 20
      vertex -22.8386 10.1684 0
      vertex -22.8386 10.1684 20
    endloop
  endfacet
  facet normal -0.406737 0.913545 0
    outer loop
      vertex -7.72542 23.7764 0
      vertex -12.5 21.6506 20
      vertex -7.72542 23.7764 20
    endloop
  endfacet
  facet normal -0.406737 0.913545 0
    outer loop
      vertex -12.5 21.6506 20
      vertex -7.72542 23.7764 0
      vertex -12.5 21.6506 0
    endloop
  endfacet
  facet normal 0.866025 0.5 0
    outer loop
      vertex 22.8386 10.1684 20
      vertex 20.2254 14.6946 0
      vertex 20.2254 14.6946 20
    endloop
  endfacet
  facet normal 0.866025 0.5 0
    outer loop
      vertex 20.2254 14.6946 0
      vertex 22.8386 10.1684 20
      vertex 22.8386 10.1684 0
    endloop
  endfacet
  facet normal 0.951057 0.309017 0
    outer loop
      vertex 24.4537 5.19779 20
      vertex 22.8386 10.1684 0
      vertex 22.8386 10.1684 20
    endloop
  endfacet
  facet normal 0.951057 0.309017 0
    outer loop
      vertex 22.8386 10.1684 0
      vertex 24.4537 5.19779 20
      vertex 24.4537 5.19779 0
    endloop
  endfacet
  facet normal 0.743145 0.669131 0
    outer loop
      vertex 20.2254 14.6946 20
      vertex 16.7283 18.5786 0
      vertex 16.7283 18.5786 20
    endloop
  endfacet
  facet normal 0.743145 0.669131 0
    outer loop
      vertex 16.7283 18.5786 0
      vertex 20.2254 14.6946 20
      vertex 20.2254 14.6946 0
    endloop
  endfacet
  facet normal 0.207912 0.978148 -0
    outer loop
      vertex 7.72542 23.7764 0
      vertex 2.61321 24.863 20
      vertex 7.72542 23.7764 20
    endloop
  endfacet
  facet normal 0.207912 0.978148 0
    outer loop
      vertex 2.61321 24.863 20
      vertex 7.72542 23.7764 0
      vertex 2.61321 24.863 0
    endloop
  endfacet
  facet normal 0.406737 0.913545 -0
    outer loop
      vertex 12.5 21.6506 0
      vertex 7.72542 23.7764 20
      vertex 12.5 21.6506 20
    endloop
  endfacet
  facet normal 0.406737 0.913545 0
    outer loop
      vertex 7.72542 23.7764 20
      vertex 12.5 21.6506 0
      vertex 7.72542 23.7764 0
    endloop
  endfacet
  facet normal -0.951057 0.309017 0
    outer loop
      vertex -24.4537 5.19779 0
      vertex -22.8386 10.1684 20
      vertex -22.8386 10.1684 0
    endloop
  endfacet
  facet normal -0.951057 0.309017 0
    outer loop
      vertex -22.8386 10.1684 20
      vertex -24.4537 5.19779 0
      vertex -24.4537 5.19779 20
    endloop
  endfacet
  facet normal 0 0 1
    outer loop
      vertex 13.25 0 20
      vertex 25 0 20
      vertex 24.4537 5.19779 20
    endloop
  endfacet
  facet normal 0 0 1
    outer loop
      vertex 12.9605 2.75483 20
      vertex 24.4537 5.19779 20
      vertex 22.8386 10.1684 20
    endloop
  endfacet
  facet normal 0 0 1
    outer loop
      vertex 25 0 20
      vertex 13.25 0 20
      vertex 24.4537 -5.19779 20
    endloop
  endfacet
  facet normal 0 0 1
    outer loop
      vertex 12.1045 5.38926 20
      vertex 22.8386 10.1684 20
      vertex 20.2254 14.6946 20
    endloop
  endfacet
  facet normal -0 0 1
    outer loop
      vertex 12.9605 -2.75483 20
      vertex 24.4537 -5.19779 20
      vertex 13.25 0 20
    endloop
  endfacet
  facet normal 0 0 1
    outer loop
      vertex 10.7195 7.78815 20
      vertex 20.2254 14.6946 20
      vertex 16.7283 18.5786 20
    endloop
  endfacet
  facet normal 0 0 1
    outer loop
      vertex 24.4537 -5.19779 20
      vertex 12.9605 -2.75483 20
      vertex 22.8386 -10.1684 20
    endloop
  endfacet
  facet normal -0 0 1
    outer loop
      vertex 12.1045 -5.38926 20
      vertex 22.8386 -10.1684 20
      vertex 12.9605 -2.75483 20
    endloop
  endfacet
  facet normal 0 0 1
    outer loop
      vertex 24.4537 5.19779 20
      vertex 12.9605 2.75483 20
      vertex 13.25 0 20
    endloop
  endfacet
  facet normal 0 0 1
    outer loop
      vertex 8.86598 9.84667 20
      vertex 16.7283 18.5786 20
      vertex 12.5 21.6506 20
    endloop
  endfacet
  facet normal 0 0 1
    outer loop
      vertex 22.8386 10.1684 20
      vertex 12.1045 5.38926 20
      vertex 12.9605 2.75483 20
    endloop
  endfacet
  facet normal 0 0 1
    outer loop
      vertex 20.2254 14.6946 20
      vertex 10.7195 7.78815 20
      vertex 12.1045 5.38926 20
    endloop
  endfacet
  facet normal 0 0 1
    outer loop
      vertex 16.7283 18.5786 20
      vertex 8.86598 9.84667 20
      vertex 10.7195 7.78815 20
    endloop
  endfacet
  facet normal 0 0 1
    outer loop
      vertex 6.625 11.4748 20
      vertex 12.5 21.6506 20
      vertex 7.72542 23.7764 20
    endloop
  endfacet
  facet normal 0 0 1
    outer loop
      vertex 12.5 21.6506 20
      vertex 6.625 11.4748 20
      vertex 8.86598 9.84667 20
    endloop
  endfacet
  facet normal 0 0 1
    outer loop
      vertex 7.72542 23.7764 20
      vertex 4.09447 12.6015 20
      vertex 6.625 11.4748 20
    endloop
  endfacet
  facet normal 0 0 1
    outer loop
      vertex 2.61321 24.863 20
      vertex 4.09447 12.6015 20
      vertex 7.72542 23.7764 20
    endloop
  endfacet
  facet normal 0 0 1
    outer loop
      vertex 2.61321 24.863 20
      vertex 1.385 13.1774 20
      vertex 4.09447 12.6015 20
    endloop
  endfacet
  facet normal 0 0 1
    outer loop
      vertex 2.61321 24.863 20
      vertex -1.385 13.1774 20
      vertex 1.385 13.1774 20
    endloop
  endfacet
  facet normal -0 0 1
    outer loop
      vertex -2.61321 24.863 20
      vertex -1.385 13.1774 20
      vertex 2.61321 24.863 20
    endloop
  endfacet
  facet normal 0 0 1
    outer loop
      vertex -2.61321 24.863 20
      vertex -4.09447 12.6015 20
      vertex -1.385 13.1774 20
    endloop
  endfacet
  facet normal -0 0 1
    outer loop
      vertex -7.72542 23.7764 20
      vertex -4.09447 12.6015 20
      vertex -2.61321 24.863 20
    endloop
  endfacet
  facet normal 0 0 1
    outer loop
      vertex -4.09447 12.6015 20
      vertex -7.72542 23.7764 20
      vertex -6.625 11.4748 20
    endloop
  endfacet
  facet normal -0 0 1
    outer loop
      vertex -12.5 21.6506 20
      vertex -6.625 11.4748 20
      vertex -7.72542 23.7764 20
    endloop
  endfacet
  facet normal 0 0 1
    outer loop
      vertex -6.625 11.4748 20
      vertex -12.5 21.6506 20
      vertex -8.86598 9.84667 20
    endloop
  endfacet
  facet normal -0 0 1
    outer loop
      vertex -16.7283 18.5786 20
      vertex -8.86598 9.84667 20
      vertex -12.5 21.6506 20
    endloop
  endfacet
  facet normal 0 0 1
    outer loop
      vertex -8.86598 9.84667 20
      vertex -16.7283 18.5786 20
      vertex -10.7195 7.78815 20
    endloop
  endfacet
  facet normal -0 0 1
    outer loop
      vertex -20.2254 14.6946 20
      vertex -10.7195 7.78815 20
      vertex -16.7283 18.5786 20
    endloop
  endfacet
  facet normal 0 0 1
    outer loop
      vertex -10.7195 7.78815 20
      vertex -20.2254 14.6946 20
      vertex -12.1045 5.38926 20
    endloop
  endfacet
  facet normal -0 0 1
    outer loop
      vertex -22.8386 10.1684 20
      vertex -12.1045 5.38926 20
      vertex -20.2254 14.6946 20
    endloop
  endfacet
  facet normal 0 0 1
    outer loop
      vertex 22.8386 -10.1684 20
      vertex 12.1045 -5.38926 20
      vertex 20.2254 -14.6946 20
    endloop
  endfacet
  facet normal -0 0 1
    outer loop
      vertex 10.7195 -7.78815 20
      vertex 20.2254 -14.6946 20
      vertex 12.1045 -5.38926 20
    endloop
  endfacet
  facet normal 0 0 1
    outer loop
      vertex 20.2254 -14.6946 20
      vertex 10.7195 -7.78815 20
      vertex 16.7283 -18.5786 20
    endloop
  endfacet
  facet normal -0 0 1
    outer loop
      vertex 8.86598 -9.84667 20
      vertex 16.7283 -18.5786 20
      vertex 10.7195 -7.78815 20
    endloop
  endfacet
  facet normal 0 0 1
    outer loop
      vertex 16.7283 -18.5786 20
      vertex 8.86598 -9.84667 20
      vertex 12.5 -21.6506 20
    endloop
  endfacet
  facet normal -0 0 1
    outer loop
      vertex 6.625 -11.4748 20
      vertex 12.5 -21.6506 20
      vertex 8.86598 -9.84667 20
    endloop
  endfacet
  facet normal 0 0 1
    outer loop
      vertex 12.5 -21.6506 20
      vertex 6.625 -11.4748 20
      vertex 7.72542 -23.7764 20
    endloop
  endfacet
  facet normal -0 0 1
    outer loop
      vertex 4.09447 -12.6015 20
      vertex 7.72542 -23.7764 20
      vertex 6.625 -11.4748 20
    endloop
  endfacet
  facet normal 0 0 1
    outer loop
      vertex 4.09447 -12.6015 20
      vertex 2.61321 -24.863 20
      vertex 7.72542 -23.7764 20
    endloop
  endfacet
  facet normal -0 0 1
    outer loop
      vertex 1.385 -13.1774 20
      vertex 2.61321 -24.863 20
      vertex 4.09447 -12.6015 20
    endloop
  endfacet
  facet normal -0 0 1
    outer loop
      vertex -1.385 -13.1774 20
      vertex 2.61321 -24.863 20
      vertex 1.385 -13.1774 20
    endloop
  endfacet
  facet normal 0 0 1
    outer loop
      vertex -1.385 -13.1774 20
      vertex -2.61321 -24.863 20
      vertex 2.61321 -24.863 20
    endloop
  endfacet
  facet normal 0 0 1
    outer loop
      vertex -4.09447 -12.6015 20
      vertex -2.61321 -24.863 20
      vertex -1.385 -13.1774 20
    endloop
  endfacet
  facet normal 0 0 1
    outer loop
      vertex -7.72542 -23.7764 20
      vertex -4.09447 -12.6015 20
      vertex -6.625 -11.4748 20
    endloop
  endfacet
  facet normal 0 0 1
    outer loop
      vertex -4.09447 -12.6015 20
      vertex -7.72542 -23.7764 20
      vertex -2.61321 -24.863 20
    endloop
  endfacet
  facet normal 0 0 1
    outer loop
      vertex -12.5 -21.6506 20
      vertex -6.625 -11.4748 20
      vertex -8.86598 -9.84667 20
    endloop
  endfacet
  facet normal 0 0 1
    outer loop
      vertex -16.7283 -18.5786 20
      vertex -8.86598 -9.84667 20
      vertex -10.7195 -7.78815 20
    endloop
  endfacet
  facet normal 0 0 1
    outer loop
      vertex -20.2254 -14.6946 20
      vertex -10.7195 -7.78815 20
      vertex -12.1045 -5.38926 20
    endloop
  endfacet
  facet normal 0 0 1
    outer loop
      vertex -6.625 -11.4748 20
      vertex -12.5 -21.6506 20
      vertex -7.72542 -23.7764 20
    endloop
  endfacet
  facet normal 0 0 1
    outer loop
      vertex -22.8386 -10.1684 20
      vertex -12.1045 -5.38926 20
      vertex -12.9605 -2.75483 20
    endloop
  endfacet
  facet normal 0 0 1
    outer loop
      vertex -24.4537 -5.19779 20
      vertex -12.9605 -2.75483 20
      vertex -13.25 0 20
    endloop
  endfacet
  facet normal 0 0 1
    outer loop
      vertex -12.1045 5.38926 20
      vertex -22.8386 10.1684 20
      vertex -12.9605 2.75483 20
    endloop
  endfacet
  facet normal 0 0 1
    outer loop
      vertex -8.86598 -9.84667 20
      vertex -16.7283 -18.5786 20
      vertex -12.5 -21.6506 20
    endloop
  endfacet
  facet normal -0 0 1
    outer loop
      vertex -24.4537 5.19779 20
      vertex -12.9605 2.75483 20
      vertex -22.8386 10.1684 20
    endloop
  endfacet
  facet normal 0 0 1
    outer loop
      vertex -10.7195 -7.78815 20
      vertex -20.2254 -14.6946 20
      vertex -16.7283 -18.5786 20
    endloop
  endfacet
  facet normal 0 0 1
    outer loop
      vertex -12.9605 2.75483 20
      vertex -24.4537 5.19779 20
      vertex -13.25 0 20
    endloop
  endfacet
  facet normal 0 0 1
    outer loop
      vertex -12.1045 -5.38926 20
      vertex -22.8386 -10.1684 20
      vertex -20.2254 -14.6946 20
    endloop
  endfacet
  facet normal 0 0 1
    outer loop
      vertex -25 0 20
      vertex -13.25 0 20
      vertex -24.4537 5.19779 20
    endloop
  endfacet
  facet normal 0 0 1
    outer loop
      vertex -12.9605 -2.75483 20
      vertex -24.4537 -5.19779 20
      vertex -22.8386 -10.1684 20
    endloop
  endfacet
  facet normal 0 0 1
    outer loop
      vertex -13.25 0 20
      vertex -25 0 20
      vertex -24.4537 -5.19779 20
    endloop
  endfacet
  facet normal -0.587785 0.809017 0
    outer loop
      vertex -12.5 21.6506 0
      vertex -16.7283 18.5786 20
      vertex -12.5 21.6506 20
    endloop
  endfacet
  facet normal -0.587785 0.809017 0
    outer loop
      vertex -16.7283 18.5786 20
      vertex -12.5 21.6506 0
      vertex -16.7283 18.5786 0
    endloop
  endfacet
  facet normal -0.207912 0.978148 0
    outer loop
      vertex -2.61321 24.863 0
      vertex -7.72542 23.7764 20
      vertex -2.61321 24.863 20
    endloop
  endfacet
  facet normal -0.207912 0.978148 0
    outer loop
      vertex -7.72542 23.7764 20
      vertex -2.61321 24.863 0
      vertex -7.72542 23.7764 0
    endloop
  endfacet
  facet normal 0.994522 -0.104529 0
    outer loop
      vertex 24.4537 -5.19779 20
      vertex 25 0 0
      vertex 25 0 20
    endloop
  endfacet
  facet normal 0.994522 -0.104529 0
    outer loop
      vertex 25 0 0
      vertex 24.4537 -5.19779 20
      vertex 24.4537 -5.19779 0
    endloop
  endfacet
  facet normal 0 0 -1
    outer loop
      vertex 24.4537 -5.19779 0
      vertex 24.4537 5.19779 0
      vertex 25 0 0
    endloop
  endfacet
  facet normal 0 0 -1
    outer loop
      vertex 22.8386 -10.1684 0
      vertex 24.4537 5.19779 0
      vertex 24.4537 -5.19779 0
    endloop
  endfacet
  facet normal 0 0 -1
    outer loop
      vertex 22.8386 -10.1684 0
      vertex 22.8386 10.1684 0
      vertex 24.4537 5.19779 0
    endloop
  endfacet
  facet normal 0 0 -1
    outer loop
      vertex 20.2254 -14.6946 0
      vertex 22.8386 10.1684 0
      vertex 22.8386 -10.1684 0
    endloop
  endfacet
  facet normal 0 0 -1
    outer loop
      vertex 20.2254 -14.6946 0
      vertex 20.2254 14.6946 0
      vertex 22.8386 10.1684 0
    endloop
  endfacet
  facet normal 0 0 -1
    outer loop
      vertex 16.7283 -18.5786 0
      vertex 20.2254 14.6946 0
      vertex 20.2254 -14.6946 0
    endloop
  endfacet
  facet normal 0 0 -1
    outer loop
      vertex 16.7283 -18.5786 0
      vertex 16.7283 18.5786 0
      vertex 20.2254 14.6946 0
    endloop
  endfacet
  facet normal 0 0 -1
    outer loop
      vertex 12.5 -21.6506 0
      vertex 16.7283 18.5786 0
      vertex 16.7283 -18.5786 0
    endloop
  endfacet
  facet normal 0 0 -1
    outer loop
      vertex 12.5 -21.6506 0
      vertex 12.5 21.6506 0
      vertex 16.7283 18.5786 0
    endloop
  endfacet
  facet normal 0 0 -1
    outer loop
      vertex 7.72542 -23.7764 0
      vertex 12.5 21.6506 0
      vertex 12.5 -21.6506 0
    endloop
  endfacet
  facet normal 0 0 -1
    outer loop
      vertex 7.72542 -23.7764 0
      vertex 7.72542 23.7764 0
      vertex 12.5 21.6506 0
    endloop
  endfacet
  facet normal 0 0 -1
    outer loop
      vertex 2.61321 -24.863 0
      vertex 7.72542 23.7764 0
      vertex 7.72542 -23.7764 0
    endloop
  endfacet
  facet normal 0 0 -1
    outer loop
      vertex 2.61321 -24.863 0
      vertex 2.61321 24.863 0
      vertex 7.72542 23.7764 0
    endloop
  endfacet
  facet normal 0 0 -1
    outer loop
      vertex -2.61321 -24.863 0
      vertex 2.61321 24.863 0
      vertex 2.61321 -24.863 0
    endloop
  endfacet
  facet normal 0 0 -1
    outer loop
      vertex -2.61321 -24.863 0
      vertex -2.61321 24.863 0
      vertex 2.61321 24.863 0
    endloop
  endfacet
  facet normal 0 0 -1
    outer loop
      vertex -7.72542 -23.7764 0
      vertex -2.61321 24.863 0
      vertex -2.61321 -24.863 0
    endloop
  endfacet
  facet normal 0 0 -1
    outer loop
      vertex -7.72542 -23.7764 0
      vertex -7.72542 23.7764 0
      vertex -2.61321 24.863 0
    endloop
  endfacet
  facet normal 0 0 -1
    outer loop
      vertex -7.72542 -23.7764 0
      vertex -12.5 21.6506 0
      vertex -7.72542 23.7764 0
    endloop
  endfacet
  facet normal 0 0 -1
    outer loop
      vertex -12.5 -21.6506 0
      vertex -12.5 21.6506 0
      vertex -7.72542 -23.7764 0
    endloop
  endfacet
  facet normal 0 0 -1
    outer loop
      vertex -16.7283 -18.5786 0
      vertex -12.5 21.6506 0
      vertex -12.5 -21.6506 0
    endloop
  endfacet
  facet normal 0 0 -1
    outer loop
      vertex -16.7283 -18.5786 0
      vertex -16.7283 18.5786 0
      vertex -12.5 21.6506 0
    endloop
  endfacet
  facet normal 0 0 -1
    outer loop
      vertex -20.2254 -14.6946 0
      vertex -16.7283 18.5786 0
      vertex -16.7283 -18.5786 0
    endloop
  endfacet
  facet normal 0 0 -1
    outer loop
      vertex -20.2254 -14.6946 0
      vertex -20.2254 14.6946 0
      vertex -16.7283 18.5786 0
    endloop
  endfacet
  facet normal 0 0 -1
    outer loop
      vertex -22.8386 -10.1684 0
      vertex -20.2254 14.6946 0
      vertex -20.2254 -14.6946 0
    endloop
  endfacet
  facet normal 0 0 -1
    outer loop
      vertex -22.8386 -10.1684 0
      vertex -22.8386 10.1684 0
      vertex -20.2254 14.6946 0
    endloop
  endfacet
  facet normal 0 0 -1
    outer loop
      vertex -24.4537 -5.19779 0
      vertex -22.8386 10.1684 0
      vertex -22.8386 -10.1684 0
    endloop
  endfacet
  facet normal 0 0 -1
    outer loop
      vertex -24.4537 -5.19779 0
      vertex -24.4537 5.19779 0
      vertex -22.8386 10.1684 0
    endloop
  endfacet
  facet normal 0 -0 -1
    outer loop
      vertex -24.4537 5.19779 0
      vertex -24.4537 -5.19779 0
      vertex -25 0 0
    endloop
  endfacet
  facet normal 0.743145 -0.669131 0
    outer loop
      vertex 16.7283 -18.5786 20
      vertex 20.2254 -14.6946 0
      vertex 20.2254 -14.6946 20
    endloop
  endfacet
  facet normal 0.743145 -0.669131 0
    outer loop
      vertex 20.2254 -14.6946 0
      vertex 16.7283 -18.5786 20
      vertex 16.7283 -18.5786 0
    endloop
  endfacet
  facet normal 0.951057 -0.309017 0
    outer loop
      vertex 22.8386 -10.1684 20
      vertex 24.4537 -5.19779 0
      vertex 24.4537 -5.19779 20
    endloop
  endfacet
  facet normal 0.951057 -0.309017 0
    outer loop
      vertex 24.4537 -5.19779 0
      vertex 22.8386 -10.1684 20
      vertex 22.8386 -10.1684 0
    endloop
  endfacet
  facet normal 0.866025 -0.5 0
    outer loop
      vertex 20.2254 -14.6946 20
      vertex 22.8386 -10.1684 0
      vertex 22.8386 -10.1684 20
    endloop
  endfacet
  facet normal 0.866025 -0.5 0
    outer loop
      vertex 22.8386 -10.1684 0
      vertex 20.2254 -14.6946 20
      vertex 20.2254 -14.6946 0
    endloop
  endfacet
  facet normal -0.866025 -0.5 0
    outer loop
      vertex -20.2254 -14.6946 0
      vertex -22.8386 -10.1684 20
      vertex -22.8386 -10.1684 0
    endloop
  endfacet
  facet normal -0.866025 -0.5 0
    outer loop
      vertex -22.8386 -10.1684 20
      vertex -20.2254 -14.6946 0
      vertex -20.2254 -14.6946 20
    endloop
  endfacet
  facet normal -0.994522 -0.104529 0
    outer loop
      vertex -24.4537 -5.19779 0
      vertex -25 0 20
      vertex -25 0 0
    endloop
  endfacet
  facet normal -0.994522 -0.104529 0
    outer loop
      vertex -25 0 20
      vertex -24.4537 -5.19779 0
      vertex -24.4537 -5.19779 20
    endloop
  endfacet
  facet normal 0.207912 -0.978148 0
    outer loop
      vertex 2.61321 -24.863 0
      vertex 7.72542 -23.7764 20
      vertex 2.61321 -24.863 20
    endloop
  endfacet
  facet normal 0.207912 -0.978148 0
    outer loop
      vertex 7.72542 -23.7764 20
      vertex 2.61321 -24.863 0
      vertex 7.72542 -23.7764 0
    endloop
  endfacet
  facet normal 0.587785 -0.809017 0
    outer loop
      vertex 12.5 -21.6506 0
      vertex 16.7283 -18.5786 20
      vertex 12.5 -21.6506 20
    endloop
  endfacet
  facet normal 0.587785 -0.809017 0
    outer loop
      vertex 16.7283 -18.5786 20
      vertex 12.5 -21.6506 0
      vertex 16.7283 -18.5786 0
    endloop
  endfacet
  facet normal -0.406737 -0.913545 0
    outer loop
      vertex -12.5 -21.6506 0
      vertex -7.72542 -23.7764 20
      vertex -12.5 -21.6506 20
    endloop
  endfacet
  facet normal -0.406737 -0.913545 -0
    outer loop
      vertex -7.72542 -23.7764 20
      vertex -12.5 -21.6506 0
      vertex -7.72542 -23.7764 0
    endloop
  endfacet
  facet normal -0.743145 -0.669131 0
    outer loop
      vertex -16.7283 -18.5786 0
      vertex -20.2254 -14.6946 20
      vertex -20.2254 -14.6946 0
    endloop
  endfacet
  facet normal -0.743145 -0.669131 0
    outer loop
      vertex -20.2254 -14.6946 20
      vertex -16.7283 -18.5786 0
      vertex -16.7283 -18.5786 20
    endloop
  endfacet
  facet normal -0.951057 -0.309017 0
    outer loop
      vertex -22.8386 -10.1684 0
      vertex -24.4537 -5.19779 20
      vertex -24.4537 -5.19779 0
    endloop
  endfacet
  facet normal -0.951057 -0.309017 0
    outer loop
      vertex -24.4537 -5.19779 20
      vertex -22.8386 -10.1684 0
      vertex -22.8386 -10.1684 20
    endloop
  endfacet
  facet normal 0.406737 -0.913545 0
    outer loop
      vertex 7.72542 -23.7764 0
      vertex 12.5 -21.6506 20
      vertex 7.72542 -23.7764 20
    endloop
  endfacet
  facet normal 0.406737 -0.913545 0
    outer loop
      vertex 12.5 -21.6506 20
      vertex 7.72542 -23.7764 0
      vertex 12.5 -21.6506 0
    endloop
  endfacet
  facet normal -0.587785 -0.809017 0
    outer loop
      vertex -16.7283 -18.5786 0
      vertex -12.5 -21.6506 20
      vertex -16.7283 -18.5786 20
    endloop
  endfacet
  facet normal -0.587785 -0.809017 -0
    outer loop
      vertex -12.5 -21.6506 20
      vertex -16.7283 -18.5786 0
      vertex -12.5 -21.6506 0
    endloop
  endfacet
  facet normal -0.207912 -0.978148 0
    outer loop
      vertex -7.72542 -23.7764 0
      vertex -2.61321 -24.863 20
      vertex -7.72542 -23.7764 20
    endloop
  endfacet
  facet normal -0.207912 -0.978148 -0
    outer loop
      vertex -2.61321 -24.863 20
      vertex -7.72542 -23.7764 0
      vertex -2.61321 -24.863 0
    endloop
  endfacet
  facet normal 0.994522 0.104529 0
    outer loop
      vertex 13.25 0 165
      vertex 12.9605 2.75483 20
      vertex 12.9605 2.75483 165
    endloop
  endfacet
  facet normal 0.994522 0.104529 0
    outer loop
      vertex 12.9605 2.75483 20
      vertex 13.25 0 165
      vertex 13.25 0 20
    endloop
  endfacet
  facet normal -0.994522 0.104529 0
    outer loop
      vertex -13.25 0 20
      vertex -12.9605 2.75483 165
      vertex -12.9605 2.75483 20
    endloop
  endfacet
  facet normal -0.994522 0.104529 0
    outer loop
      vertex -12.9605 2.75483 165
      vertex -13.25 0 20
      vertex -13.25 0 165
    endloop
  endfacet
  facet normal 0 1 -0
    outer loop
      vertex 1.385 13.1774 20
      vertex -1.385 13.1774 165
      vertex 1.385 13.1774 165
    endloop
  endfacet
  facet normal 0 1 0
    outer loop
      vertex -1.385 13.1774 165
      vertex 1.385 13.1774 20
      vertex -1.385 13.1774 20
    endloop
  endfacet
  facet normal 0 -1 0
    outer loop
      vertex -1.385 -13.1774 20
      vertex 1.385 -13.1774 165
      vertex -1.385 -13.1774 165
    endloop
  endfacet
  facet normal 0 -1 -0
    outer loop
      vertex 1.385 -13.1774 165
      vertex -1.385 -13.1774 20
      vertex 1.385 -13.1774 20
    endloop
  endfacet
  facet normal 0.587785 0.809017 -0
    outer loop
      vertex 8.86598 9.84667 20
      vertex 6.625 11.4748 165
      vertex 8.86598 9.84667 165
    endloop
  endfacet
  facet normal 0.587785 0.809017 0
    outer loop
      vertex 6.625 11.4748 165
      vertex 8.86598 9.84667 20
      vertex 6.625 11.4748 20
    endloop
  endfacet
  facet normal -0.587785 0.809017 0
    outer loop
      vertex -6.625 11.4748 20
      vertex -8.86598 9.84667 165
      vertex -6.625 11.4748 165
    endloop
  endfacet
  facet normal -0.587785 0.809017 0
    outer loop
      vertex -8.86598 9.84667 165
      vertex -6.625 11.4748 20
      vertex -8.86598 9.84667 20
    endloop
  endfacet
  facet normal -0.207912 0.978148 0
    outer loop
      vertex -1.385 13.1774 20
      vertex -4.09447 12.6015 165
      vertex -1.385 13.1774 165
    endloop
  endfacet
  facet normal -0.207912 0.978148 0
    outer loop
      vertex -4.09447 12.6015 165
      vertex -1.385 13.1774 20
      vertex -4.09447 12.6015 20
    endloop
  endfacet
  facet normal 0.951057 -0.309017 0
    outer loop
      vertex 12.1045 -5.38926 165
      vertex 12.9605 -2.75483 20
      vertex 12.9605 -2.75483 165
    endloop
  endfacet
  facet normal 0.951057 -0.309017 0
    outer loop
      vertex 12.9605 -2.75483 20
      vertex 12.1045 -5.38926 165
      vertex 12.1045 -5.38926 20
    endloop
  endfacet
  facet normal 0.866025 0.5 0
    outer loop
      vertex 12.1045 5.38926 165
      vertex 10.7195 7.78815 20
      vertex 10.7195 7.78815 165
    endloop
  endfacet
  facet normal 0.866025 0.5 0
    outer loop
      vertex 10.7195 7.78815 20
      vertex 12.1045 5.38926 165
      vertex 12.1045 5.38926 20
    endloop
  endfacet
  facet normal 0.951057 0.309017 0
    outer loop
      vertex 12.9605 2.75483 165
      vertex 12.1045 5.38926 20
      vertex 12.1045 5.38926 165
    endloop
  endfacet
  facet normal 0.951057 0.309017 0
    outer loop
      vertex 12.1045 5.38926 20
      vertex 12.9605 2.75483 165
      vertex 12.9605 2.75483 20
    endloop
  endfacet
  facet normal 0.743145 0.669131 0
    outer loop
      vertex 10.7195 7.78815 165
      vertex 8.86598 9.84667 20
      vertex 8.86598 9.84667 165
    endloop
  endfacet
  facet normal 0.743145 0.669131 0
    outer loop
      vertex 8.86598 9.84667 20
      vertex 10.7195 7.78815 165
      vertex 10.7195 7.78815 20
    endloop
  endfacet
  facet normal 0.207912 0.978148 -0
    outer loop
      vertex 4.09447 12.6015 20
      vertex 1.385 13.1774 165
      vertex 4.09447 12.6015 165
    endloop
  endfacet
  facet normal 0.207912 0.978148 0
    outer loop
      vertex 1.385 13.1774 165
      vertex 4.09447 12.6015 20
      vertex 1.385 13.1774 20
    endloop
  endfacet
  facet normal 0.406737 0.913545 -0
    outer loop
      vertex 6.625 11.4748 20
      vertex 4.09447 12.6015 165
      vertex 6.625 11.4748 165
    endloop
  endfacet
  facet normal 0.406737 0.913545 0
    outer loop
      vertex 4.09447 12.6015 165
      vertex 6.625 11.4748 20
      vertex 4.09447 12.6015 20
    endloop
  endfacet
  facet normal -0.866025 0.5 0
    outer loop
      vertex -12.1045 5.38926 20
      vertex -10.7195 7.78815 165
      vertex -10.7195 7.78815 20
    endloop
  endfacet
  facet normal -0.866025 0.5 0
    outer loop
      vertex -10.7195 7.78815 165
      vertex -12.1045 5.38926 20
      vertex -12.1045 5.38926 165
    endloop
  endfacet
  facet normal -0.743145 0.669131 0
    outer loop
      vertex -10.7195 7.78815 20
      vertex -8.86598 9.84667 165
      vertex -8.86598 9.84667 20
    endloop
  endfacet
  facet normal -0.743145 0.669131 0
    outer loop
      vertex -8.86598 9.84667 165
      vertex -10.7195 7.78815 20
      vertex -10.7195 7.78815 165
    endloop
  endfacet
  facet normal -0.951057 0.309017 0
    outer loop
      vertex -12.9605 2.75483 20
      vertex -12.1045 5.38926 165
      vertex -12.1045 5.38926 20
    endloop
  endfacet
  facet normal -0.951057 0.309017 0
    outer loop
      vertex -12.1045 5.38926 165
      vertex -12.9605 2.75483 20
      vertex -12.9605 2.75483 165
    endloop
  endfacet
  facet normal 0 0 1
    outer loop
      vertex 12.9605 2.75483 165
      vertex 12.9605 -2.75483 165
      vertex 13.25 0 165
    endloop
  endfacet
  facet normal 0 0 1
    outer loop
      vertex 12.1045 5.38926 165
      vertex 12.9605 -2.75483 165
      vertex 12.9605 2.75483 165
    endloop
  endfacet
  facet normal 0 0 1
    outer loop
      vertex 12.1045 5.38926 165
      vertex 12.1045 -5.38926 165
      vertex 12.9605 -2.75483 165
    endloop
  endfacet
  facet normal 0 0 1
    outer loop
      vertex 10.7195 7.78815 165
      vertex 12.1045 -5.38926 165
      vertex 12.1045 5.38926 165
    endloop
  endfacet
  facet normal 0 0 1
    outer loop
      vertex 10.7195 7.78815 165
      vertex 10.7195 -7.78815 165
      vertex 12.1045 -5.38926 165
    endloop
  endfacet
  facet normal 0 0 1
    outer loop
      vertex 8.86598 9.84667 165
      vertex 10.7195 -7.78815 165
      vertex 10.7195 7.78815 165
    endloop
  endfacet
  facet normal 0 0 1
    outer loop
      vertex 8.86598 9.84667 165
      vertex 8.86598 -9.84667 165
      vertex 10.7195 -7.78815 165
    endloop
  endfacet
  facet normal 0 0 1
    outer loop
      vertex 6.625 11.4748 165
      vertex 8.86598 -9.84667 165
      vertex 8.86598 9.84667 165
    endloop
  endfacet
  facet normal 0 0 1
    outer loop
      vertex 6.625 11.4748 165
      vertex 6.625 -11.4748 165
      vertex 8.86598 -9.84667 165
    endloop
  endfacet
  facet normal 0 0 1
    outer loop
      vertex 4.09447 12.6015 165
      vertex 6.625 -11.4748 165
      vertex 6.625 11.4748 165
    endloop
  endfacet
  facet normal 0 0 1
    outer loop
      vertex 4.09447 12.6015 165
      vertex 4.09447 -12.6015 165
      vertex 6.625 -11.4748 165
    endloop
  endfacet
  facet normal 0 0 1
    outer loop
      vertex 1.385 13.1774 165
      vertex 4.09447 -12.6015 165
      vertex 4.09447 12.6015 165
    endloop
  endfacet
  facet normal 0 0 1
    outer loop
      vertex 1.385 13.1774 165
      vertex 1.385 -13.1774 165
      vertex 4.09447 -12.6015 165
    endloop
  endfacet
  facet normal -0 0 1
    outer loop
      vertex -1.385 13.1774 165
      vertex 1.385 -13.1774 165
      vertex 1.385 13.1774 165
    endloop
  endfacet
  facet normal 0 0 1
    outer loop
      vertex -1.385 13.1774 165
      vertex -1.385 -13.1774 165
      vertex 1.385 -13.1774 165
    endloop
  endfacet
  facet normal -0 0 1
    outer loop
      vertex -4.09447 12.6015 165
      vertex -1.385 -13.1774 165
      vertex -1.385 13.1774 165
    endloop
  endfacet
  facet normal 0 0 1
    outer loop
      vertex -4.09447 12.6015 165
      vertex -4.09447 -12.6015 165
      vertex -1.385 -13.1774 165
    endloop
  endfacet
  facet normal -0 0 1
    outer loop
      vertex -6.625 11.4748 165
      vertex -4.09447 -12.6015 165
      vertex -4.09447 12.6015 165
    endloop
  endfacet
  facet normal 0 0 1
    outer loop
      vertex -6.625 11.4748 165
      vertex -6.625 -11.4748 165
      vertex -4.09447 -12.6015 165
    endloop
  endfacet
  facet normal -0 0 1
    outer loop
      vertex -8.86598 9.84667 165
      vertex -6.625 -11.4748 165
      vertex -6.625 11.4748 165
    endloop
  endfacet
  facet normal 0 0 1
    outer loop
      vertex -8.86598 9.84667 165
      vertex -8.86598 -9.84667 165
      vertex -6.625 -11.4748 165
    endloop
  endfacet
  facet normal -0 0 1
    outer loop
      vertex -10.7195 7.78815 165
      vertex -8.86598 -9.84667 165
      vertex -8.86598 9.84667 165
    endloop
  endfacet
  facet normal 0 0 1
    outer loop
      vertex -10.7195 7.78815 165
      vertex -10.7195 -7.78815 165
      vertex -8.86598 -9.84667 165
    endloop
  endfacet
  facet normal -0 0 1
    outer loop
      vertex -12.1045 5.38926 165
      vertex -10.7195 -7.78815 165
      vertex -10.7195 7.78815 165
    endloop
  endfacet
  facet normal 0 0 1
    outer loop
      vertex -12.1045 5.38926 165
      vertex -12.1045 -5.38926 165
      vertex -10.7195 -7.78815 165
    endloop
  endfacet
  facet normal -0 0 1
    outer loop
      vertex -12.9605 2.75483 165
      vertex -12.1045 -5.38926 165
      vertex -12.1045 5.38926 165
    endloop
  endfacet
  facet normal 0 0 1
    outer loop
      vertex -12.9605 2.75483 165
      vertex -12.9605 -2.75483 165
      vertex -12.1045 -5.38926 165
    endloop
  endfacet
  facet normal 0 -0 1
    outer loop
      vertex -12.9605 -2.75483 165
      vertex -12.9605 2.75483 165
      vertex -13.25 0 165
    endloop
  endfacet
  facet normal -0.406737 0.913545 0
    outer loop
      vertex -4.09447 12.6015 20
      vertex -6.625 11.4748 165
      vertex -4.09447 12.6015 165
    endloop
  endfacet
  facet normal -0.406737 0.913545 0
    outer loop
      vertex -6.625 11.4748 165
      vertex -4.09447 12.6015 20
      vertex -6.625 11.4748 20
    endloop
  endfacet
  facet normal 0.994522 -0.104529 0
    outer loop
      vertex 12.9605 -2.75483 165
      vertex 13.25 0 20
      vertex 13.25 0 165
    endloop
  endfacet
  facet normal 0.994522 -0.104529 0
    outer loop
      vertex 13.25 0 20
      vertex 12.9605 -2.75483 165
      vertex 12.9605 -2.75483 20
    endloop
  endfacet
  facet normal 0.866025 -0.5 0
    outer loop
      vertex 10.7195 -7.78815 165
      vertex 12.1045 -5.38926 20
      vertex 12.1045 -5.38926 165
    endloop
  endfacet
  facet normal 0.866025 -0.5 0
    outer loop
      vertex 12.1045 -5.38926 20
      vertex 10.7195 -7.78815 165
      vertex 10.7195 -7.78815 20
    endloop
  endfacet
  facet normal -0.866025 -0.5 0
    outer loop
      vertex -10.7195 -7.78815 20
      vertex -12.1045 -5.38926 165
      vertex -12.1045 -5.38926 20
    endloop
  endfacet
  facet normal -0.866025 -0.5 0
    outer loop
      vertex -12.1045 -5.38926 165
      vertex -10.7195 -7.78815 20
      vertex -10.7195 -7.78815 165
    endloop
  endfacet
  facet normal -0.743145 -0.669131 0
    outer loop
      vertex -8.86598 -9.84667 20
      vertex -10.7195 -7.78815 165
      vertex -10.7195 -7.78815 20
    endloop
  endfacet
  facet normal -0.743145 -0.669131 0
    outer loop
      vertex -10.7195 -7.78815 165
      vertex -8.86598 -9.84667 20
      vertex -8.86598 -9.84667 165
    endloop
  endfacet
  facet normal 0.587785 -0.809017 0
    outer loop
      vertex 6.625 -11.4748 20
      vertex 8.86598 -9.84667 165
      vertex 6.625 -11.4748 165
    endloop
  endfacet
  facet normal 0.587785 -0.809017 0
    outer loop
      vertex 8.86598 -9.84667 165
      vertex 6.625 -11.4748 20
      vertex 8.86598 -9.84667 20
    endloop
  endfacet
  facet normal -0.207912 -0.978148 0
    outer loop
      vertex -4.09447 -12.6015 20
      vertex -1.385 -13.1774 165
      vertex -4.09447 -12.6015 165
    endloop
  endfacet
  facet normal -0.207912 -0.978148 -0
    outer loop
      vertex -1.385 -13.1774 165
      vertex -4.09447 -12.6015 20
      vertex -1.385 -13.1774 20
    endloop
  endfacet
  facet normal -0.951057 -0.309017 0
    outer loop
      vertex -12.1045 -5.38926 20
      vertex -12.9605 -2.75483 165
      vertex -12.9605 -2.75483 20
    endloop
  endfacet
  facet normal -0.951057 -0.309017 0
    outer loop
      vertex -12.9605 -2.75483 165
      vertex -12.1045 -5.38926 20
      vertex -12.1045 -5.38926 165
    endloop
  endfacet
  facet normal -0.994522 -0.104529 0
    outer loop
      vertex -12.9605 -2.75483 20
      vertex -13.25 0 165
      vertex -13.25 0 20
    endloop
  endfacet
  facet normal -0.994522 -0.104529 0
    outer loop
      vertex -13.25 0 165
      vertex -12.9605 -2.75483 20
      vertex -12.9605 -2.75483 165
    endloop
  endfacet
  facet normal 0.406737 -0.913545 0
    outer loop
      vertex 4.09447 -12.6015 20
      vertex 6.625 -11.4748 165
      vertex 4.09447 -12.6015 165
    endloop
  endfacet
  facet normal 0.406737 -0.913545 0
    outer loop
      vertex 6.625 -11.4748 165
      vertex 4.09447 -12.6015 20
      vertex 6.625 -11.4748 20
    endloop
  endfacet
  facet normal 0.207912 -0.978148 0
    outer loop
      vertex 1.385 -13.1774 20
      vertex 4.09447 -12.6015 165
      vertex 1.385 -13.1774 165
    endloop
  endfacet
  facet normal 0.207912 -0.978148 0
    outer loop
      vertex 4.09447 -12.6015 165
      vertex 1.385 -13.1774 20
      vertex 4.09447 -12.6015 20
    endloop
  endfacet
  facet normal 0.743145 -0.669131 0
    outer loop
      vertex 8.86598 -9.84667 165
      vertex 10.7195 -7.78815 20
      vertex 10.7195 -7.78815 165
    endloop
  endfacet
  facet normal 0.743145 -0.669131 0
    outer loop
      vertex 10.7195 -7.78815 20
      vertex 8.86598 -9.84667 165
      vertex 8.86598 -9.84667 20
    endloop
  endfacet
  facet normal -0.406737 -0.913545 0
    outer loop
      vertex -6.625 -11.4748 20
      vertex -4.09447 -12.6015 165
      vertex -6.625 -11.4748 165
    endloop
  endfacet
  facet normal -0.406737 -0.913545 -0
    outer loop
      vertex -4.09447 -12.6015 165
      vertex -6.625 -11.4748 20
      vertex -4.09447 -12.6015 20
    endloop
  endfacet
  facet normal -0.587785 -0.809017 0
    outer loop
      vertex -8.86598 -9.84667 20
      vertex -6.625 -11.4748 165
      vertex -8.86598 -9.84667 165
    endloop
  endfacet
  facet normal -0.587785 -0.809017 -0
    outer loop
      vertex -6.625 -11.4748 165
      vertex -8.86598 -9.84667 20
      vertex -6.625 -11.4748 20
    endloop
  endfacet
endsolid OpenSCAD_Model
